# File created by Blade
# Date/Time:  Wed Jan 21 14:28:11 2015
# Frame Rate: 120.000 fps
#------------------------------------------------------
:FULLY-SPECIFIED
:DEGREES
274
root 18.763666 35.505745 -21.468605 -174.029329 -1.706040 -178.339588
Spine -8.227182 -3.494765 0.244257
Head -1.687315 0.578484 2.810682
LeftShoulder -24.167290 1.255375 12.392160
LeftArm -54.728648 6.417282 -87.627637
LeftForeArm 20.223422 -0.000000 -1.622882
LeftHand -4.974576 -0.000000 -43.489877
LeftHandThumb1 -26.253704 0.000000 33.147579
RightShoulder -28.850848 -34.691832 2.591153
RightArm -16.600933 -17.340535 86.046607
RightForeArm -43.309615 -0.000000 6.869444
RightHand 1.440226 -0.000000 46.548936
RightHandThumb1 -24.326973 -0.000000 -32.862282
LeftUpLeg 2.566310 8.827340 2.896190
LeftLeg -6.149587 -0.000000 0.000000
LeftFoot -20.832595 27.647030 -12.773589
LeftToeBase 26.998295 -0.000000 -0.000000
RightUpLeg 0.306230 -12.263206 -0.309120
RightLeg -2.136939 -0.000000 0.000000
RightFoot -20.650793 -20.833627 17.399771
RightToeBase 25.410653 -0.000000 -0.000000
275
root 18.766117 35.506665 -21.469606 -174.053829 -1.699542 -178.338655
Spine -8.171115 -3.547025 0.235097
Head -1.657461 0.619810 2.842791
LeftShoulder -24.161751 1.387836 12.383760
LeftArm -54.746316 6.307096 -87.426612
LeftForeArm 20.461065 -0.000000 -1.656229
LeftHand -5.029628 -0.000000 -43.510826
LeftHandThumb1 -26.253704 0.000000 33.147579
RightShoulder -28.848013 -34.797282 2.563046
RightArm -16.679410 -17.294268 86.013784
RightForeArm -43.394951 0.000000 6.793100
RightHand 1.572302 0.000000 46.438300
RightHandThumb1 -24.326973 -0.000000 -32.862282
LeftUpLeg 2.574932 8.827751 2.903313
LeftLeg -6.114709 -0.000000 0.000000
LeftFoot -20.854804 27.648128 -12.800652
LeftToeBase 27.021332 -0.000000 -0.000000
RightUpLeg 0.316251 -12.277988 -0.309019
RightLeg -2.108230 -0.000000 0.000000
RightFoot -20.654862 -20.815410 17.409654
RightToeBase 25.310757 -0.000000 -0.000000
276
root 18.768174 35.507222 -21.471215 -174.084851 -1.674286 -178.335858
Spine -8.103043 -3.575754 0.219453
Head -1.642159 0.687977 2.892057
LeftShoulder -24.164274 1.483914 12.409439
LeftArm -54.831227 6.226829 -87.266269
LeftForeArm 20.643357 -0.000000 -1.662703
LeftHand -5.133032 -0.000000 -43.466853
LeftHandThumb1 -26.253704 0.000000 33.147579
RightShoulder -28.839996 -34.892520 2.541492
RightArm -16.774508 -17.268508 85.981114
RightForeArm -43.450860 -0.000000 6.762268
RightHand 1.520641 -0.000000 46.437274
RightHandThumb1 -24.326973 -0.000000 -32.862282
LeftUpLeg 2.606383 8.840541 2.914533
LeftLeg -6.099021 -0.000000 0.000000
LeftFoot -20.867141 27.637742 -12.812503
LeftToeBase 27.016524 -0.000000 -0.000000
RightUpLeg 0.331757 -12.271178 -0.310065
RightLeg -2.079364 -0.000000 0.000000
RightFoot -20.665396 -20.800056 17.395471
RightToeBase 25.384883 -0.000000 -0.000000
277
root 18.770714 35.507817 -21.472185 -174.110391 -1.642646 -178.332832
Spine -8.032303 -3.577879 0.200996
Head -1.660026 0.717818 2.939921
LeftShoulder -24.161557 1.612290 12.436181
LeftArm -54.860739 6.210813 -87.195461
LeftForeArm 20.776305 -0.000000 -1.684104
LeftHand -5.177518 0.000000 -43.423094
LeftHandThumb1 -26.253704 0.000000 33.147579
RightShoulder -28.873359 -34.994983 2.526981
RightArm -16.832683 -17.275316 85.972245
RightForeArm -43.647781 -0.000000 6.693700
RightHand 1.533593 -0.000000 46.533300
RightHandThumb1 -24.326973 -0.000000 -32.862282
LeftUpLeg 2.622697 8.871813 2.922385
LeftLeg -6.067795 -0.000000 0.000000
LeftFoot -20.886507 27.631792 -12.833686
LeftToeBase 26.959864 -0.000000 -0.000000
RightUpLeg 0.342259 -12.274003 -0.309582
RightLeg -2.055313 -0.000000 0.000000
RightFoot -20.667129 -20.767651 17.402803
RightToeBase 25.421898 -0.000000 -0.000000
278
root 18.773380 35.508196 -21.474046 -174.161591 -1.609159 -178.332319
Spine -7.932680 -3.586991 0.172549
Head -1.672698 0.736232 2.992718
LeftShoulder -24.166178 1.726128 12.465316
LeftArm -54.907674 6.169731 -87.088861
LeftForeArm 21.112567 -0.000000 -1.692282
LeftHand -5.129395 -0.000000 -43.475266
LeftHandThumb1 -26.253704 0.000000 33.147579
RightShoulder -28.885632 -35.157635 2.516259
RightArm -16.853542 -17.448353 86.043594
RightForeArm -43.745149 -0.000000 6.698148
RightHand 1.494026 -0.000000 46.529463
RightHandThumb1 -24.326973 -0.000000 -32.862282
LeftUpLeg 2.675810 8.913192 2.931662
LeftLeg -6.056225 -0.000000 0.000000
LeftFoot -20.896310 27.625736 -12.842798
LeftToeBase 27.011838 -0.000000 -0.000000
RightUpLeg 0.387668 -12.267839 -0.317974
RightLeg -2.046443 -0.000000 0.000000
RightFoot -20.666215 -20.755555 17.383513
RightToeBase 25.363370 -0.000000 -0.000000
279
root 18.777267 35.508698 -21.473679 -174.196028 -1.562460 -178.322290
Spine -7.845892 -3.563447 0.159667
Head -1.690108 0.762525 3.019139
LeftShoulder -24.166047 1.866593 12.476307
LeftArm -54.919896 6.301602 -87.202205
LeftForeArm 21.094831 0.000000 -1.760805
LeftHand -5.098232 -0.000000 -43.433215
LeftHandThumb1 -26.253704 0.000000 33.147579
RightShoulder -28.908947 -35.287015 2.494187
RightArm -16.901815 -17.755836 86.141818
RightForeArm -43.660625 -0.000000 6.651090
RightHand 1.503348 -0.000000 46.397506
RightHandThumb1 -24.326973 -0.000000 -32.862282
LeftUpLeg 2.710840 8.945900 2.949414
LeftLeg -6.041939 -0.000000 0.000000
LeftFoot -20.908417 27.628334 -12.870610
LeftToeBase 26.961596 -0.000000 -0.000000
RightUpLeg 0.406637 -12.235813 -0.311136
RightLeg -2.029768 -0.000000 0.000000
RightFoot -20.669005 -20.730875 17.407775
RightToeBase 25.393948 -0.000000 -0.000000
280
root 18.780231 35.509156 -21.474360 -174.234331 -1.513305 -178.316739
Spine -7.751529 -3.542063 0.140940
Head -1.731627 0.779711 3.048304
LeftShoulder -24.177929 1.980410 12.497380
LeftArm -54.970145 6.432492 -87.298858
LeftForeArm 20.993046 -0.000000 -1.771674
LeftHand -5.162994 -0.000000 -43.509537
LeftHandThumb1 -26.253704 0.000000 33.147579
RightShoulder -28.943136 -35.431420 2.484128
RightArm -16.915033 -17.989467 86.211124
RightForeArm -43.703214 -0.000000 6.588552
RightHand 1.598621 -0.000000 46.359516
RightHandThumb1 -24.326973 -0.000000 -32.862282
LeftUpLeg 2.757776 8.971759 2.961628
LeftLeg -6.039571 -0.000000 0.000000
LeftFoot -20.907706 27.649228 -12.865085
LeftToeBase 26.964644 -0.000000 -0.000000
RightUpLeg 0.437429 -12.195931 -0.311736
RightLeg -2.025716 -0.000000 0.000000
RightFoot -20.655451 -20.740202 17.388041
RightToeBase 25.363925 -0.000000 -0.000000
281
root 18.784020 35.509329 -21.475540 -174.274464 -1.464871 -178.314582
Spine -7.656707 -3.510185 0.108241
Head -1.770330 0.758391 3.094956
LeftShoulder -24.173349 2.085298 12.537418
LeftArm -55.045269 6.552323 -87.398726
LeftForeArm 20.909455 -0.000000 -1.805597
LeftHand -5.088772 0.000000 -43.479341
LeftHandThumb1 -26.253704 0.000000 33.147579
RightShoulder -28.958175 -35.539455 2.448702
RightArm -16.997085 -18.141272 86.273816
RightForeArm -43.721594 -0.000000 6.589306
RightHand 1.662440 0.000000 46.367879
RightHandThumb1 -24.326973 -0.000000 -32.862282
LeftUpLeg 2.810879 8.987881 2.973022
LeftLeg -6.041393 -0.000000 0.000000
LeftFoot -20.916388 27.667875 -12.899545
LeftToeBase 26.934533 -0.000000 -0.000000
RightUpLeg 0.473091 -12.176150 -0.315098
RightLeg -2.023839 -0.000000 0.000000
RightFoot -20.656465 -20.713895 17.394241
RightToeBase 25.343124 -0.000000 -0.000000
282
root 18.787418 35.509694 -21.475264 -174.309101 -1.413881 -178.304818
Spine -7.562614 -3.480506 0.087291
Head -1.813611 0.759722 3.139802
LeftShoulder -24.176733 2.202569 12.591263
LeftArm -55.094227 6.565647 -87.354208
LeftForeArm 20.857719 -0.000000 -1.834739
LeftHand -5.134129 -0.000000 -43.529055
LeftHandThumb1 -26.253704 0.000000 33.147579
RightShoulder -29.000512 -35.693258 2.459558
RightArm -16.986575 -18.228775 86.274828
RightForeArm -43.717474 -0.000000 6.574314
RightHand 1.643227 -0.000000 46.411402
RightHandThumb1 -24.326973 -0.000000 -32.862282
LeftUpLeg 2.855495 9.011131 2.989350
LeftLeg -6.044990 -0.000000 0.000000
LeftFoot -20.924939 27.693244 -12.906570
LeftToeBase 26.924008 -0.000000 -0.000000
RightUpLeg 0.499802 -12.139962 -0.310212
RightLeg -2.022681 -0.000000 0.000000
RightFoot -20.646088 -20.707391 17.401603
RightToeBase 25.345756 -0.000000 -0.000000
283
root 18.790416 35.510503 -21.474204 -174.329033 -1.348547 -178.288947
Spine -7.488166 -3.436208 0.079655
Head -1.844352 0.757621 3.175345
LeftShoulder -24.197203 2.341245 12.639451
LeftArm -55.114210 6.573962 -87.272143
LeftForeArm 20.907899 0.000000 -1.852790
LeftHand -5.122035 -0.000000 -43.638112
LeftHandThumb1 -26.253704 0.000000 33.147579
RightShoulder -28.984597 -35.801467 2.420411
RightArm -17.073155 -18.290459 86.324246
RightForeArm -43.756036 -0.000000 6.583830
RightHand 1.666376 0.000000 46.381907
RightHandThumb1 -24.326973 -0.000000 -32.862282
LeftUpLeg 2.890582 9.042841 3.005316
LeftLeg -6.057379 -0.000000 0.000000
LeftFoot -20.933298 27.729892 -12.935686
LeftToeBase 26.930013 -0.000000 -0.000000
RightUpLeg 0.508742 -12.088977 -0.297223
RightLeg -2.018338 -0.000000 0.000000
RightFoot -20.627021 -20.680648 17.467244
RightToeBase 25.228568 -0.000000 -0.000000
284
root 18.793031 35.511124 -21.473240 -174.353138 -1.289992 -178.277962
Spine -7.405850 -3.385573 0.063669
Head -1.890922 0.726247 3.211521
LeftShoulder -24.196917 2.457113 12.713842
LeftArm -55.164676 6.518248 -87.126297
LeftForeArm 21.032564 -0.000000 -1.850145
LeftHand -5.088341 -0.000000 -43.657930
LeftHandThumb1 -26.253704 0.000000 33.147579
RightShoulder -28.983969 -35.890103 2.385672
RightArm -17.149303 -18.300697 86.354239
RightForeArm -43.801564 0.000000 6.554805
RightHand 1.704424 -0.000000 46.448023
RightHandThumb1 -24.326973 -0.000000 -32.862282
LeftUpLeg 2.922745 9.073049 3.019646
LeftLeg -6.056025 -0.000000 0.000000
LeftFoot -20.946923 27.748454 -12.955445
LeftToeBase 26.934880 -0.000000 -0.000000
RightUpLeg 0.529262 -12.048679 -0.292315
RightLeg -2.030247 -0.000000 0.000000
RightFoot -20.609999 -20.671684 17.379676
RightToeBase 25.397308 -0.000000 -0.000000
